<svg width="95" height="44" viewBox="0 0 95 44" fill="none" xmlns="http://www.w3.org/2000/svg">
<path d="M49.7715 26.7976C52.9427 29.9303 56.421 31.4862 59.6069 33.6631C65.5504 37.7171 72.5273 38.3051 79.456 39.1052C83.6638 39.5888 87.9229 39.8922 91.9682 41.027C92.5232 41.1805 93.0813 41.3246 93.6152 41.5231C94.0979 41.6952 94.7887 41.8396 94.5959 42.7499C94.3701 43.8254 93.628 43.572 93.1484 43.6178C88.8835 44.0148 84.721 43.845 80.5705 43.617C75.0234 43.3123 69.3046 43.563 64.2335 41.4248C57.7053 38.6744 51.5056 35.108 46.2404 29.5627C45.5916 28.8737 44.9882 28.3126 43.9687 28.5298C37.3937 29.9579 31.2432 29.092 25.1379 28.1268C20.1125 27.3351 15.1323 26.3408 10.3961 24.5658C7.33418 23.4089 4.35062 22.0288 1.72872 19.812C1.27313 19.4316 0.832611 19.0042 0.43128 18.5168C0.0601233 18.0596 -0.223643 17.4129 0.243596 16.5577C0.731933 15.6574 1.23271 15.8765 1.69734 16.2288C11.1256 23.3488 22.4763 24.3588 33.7004 25.7628C36.6172 26.1306 39.6094 26.2017 43.0086 25.5434C41.8827 23.2382 40.8626 21.2657 39.9208 19.2146C38.7345 16.622 37.5241 14.0424 37.0163 10.8055C36.4752 7.34116 37.192 4.24057 38.992 2.04777C40.7679 -0.111284 43.3888 -0.786546 45.2294 1.11283C46.9402 2.87855 48.0206 4.33282 51.1113 1.61547C54.6273 -1.47454 60.7394 1.80625 62.1857 6.15352C63.2153 9.25468 62.33 13.769 59.8881 17.6297C57.621 21.2148 54.9253 23.7153 51.9579 25.4696C51.3608 25.8193 50.7727 26.2028 49.7776 26.8201L49.7715 26.7976ZM56.0047 4.51391C55.4829 4.42249 54.8162 4.22369 54.1164 4.21071C51.0277 4.15055 49.9394 5.65777 49.7206 10.061C49.6368 11.8111 50.087 14.1108 48.1237 14.9718C46.3323 15.7523 46.4822 13.2794 46.2193 11.7614C45.7327 8.9545 45.0803 6.3332 43.3575 4.8529C42.6183 4.21821 41.7193 3.72958 40.7093 4.95153C39.7203 6.14913 39.7992 7.53715 40.0229 8.82598C40.0924 9.20926 40.1679 9.59443 40.2766 9.93836C41.8498 15.131 44.1346 19.5142 46.7873 23.4757C47.3094 24.2488 47.979 24.3762 48.8446 24.0178C51.4412 22.9424 53.9714 21.4331 56.278 18.8622C58.4489 16.445 60.3754 13.6309 60.3892 9.92759C60.4 6.19235 58.2371 5.35883 56.0108 4.5158L56.0047 4.51391Z" fill="#F05658"/>
</svg>
