<svg width="10283" height="992" viewBox="0 0 10283 992" fill="none" xmlns="http://www.w3.org/2000/svg">
<rect width="200" height="200" transform="translate(10082.7)" fill="white"/>
<path fill-rule="evenodd" clip-rule="evenodd" d="M10147.6 172.652C10147.3 172.802 10147 172.752 10146.8 172.534C10145.7 171.534 10144.4 170.726 10143.2 169.763C10142.6 169.241 10141.9 168.771 10141.2 168.358C10140.7 168.061 10140.3 167.597 10139.8 167.259L10139.7 167.17C10139.1 166.802 10138.6 166.27 10138 165.857C10137.5 165.508 10137.2 164.99 10136.7 164.616C10136 164.064 10135.3 163.477 10134.6 162.856C10134.2 162.509 10133.8 162.079 10133.5 161.589C10133.4 161.449 10133.3 161.42 10133.2 161.333C10132.8 160.974 10132.4 160.591 10132 160.184C10131.3 159.303 10130.5 158.494 10129.7 157.603C10129.2 156.956 10128.6 156.345 10128.1 155.715C10127.6 155.109 10127 154.492 10126.5 153.866C10125.4 152.403 10124.3 150.872 10123.3 149.281C10122.5 148.027 10121.8 146.729 10121.2 145.396C10120.6 144.336 10120.2 143.24 10119.8 142.117C10119.5 141.21 10119 140.339 10118.8 139.423C10118.6 138.558 10118.4 137.698 10118.2 136.844C10117.7 134.867 10117.3 132.876 10117 130.871C10116.8 129.691 10116.6 128.499 10116.4 127.326C10116.1 125.95 10116 124.556 10115.8 123.18C10115.6 122.374 10115.6 121.521 10115.5 120.694C10115.4 119.893 10115.4 119.085 10115.3 118.29C10115.2 117.493 10115.1 116.69 10115.1 115.885C10115 115.138 10114.8 114.353 10115 113.587C10114.6 113.05 10114.9 112.429 10114.8 111.854C10114.8 111.279 10114.7 110.694 10114.6 110.134C10114.5 109.558 10114.5 108.968 10114.4 108.395C10114.2 107.232 10113.9 106.091 10113.8 104.936C10113.7 104.23 10113.4 103.607 10113.2 102.93C10112.9 101.635 10112.5 100.374 10111.9 99.1658C10111.7 98.6852 10111.5 98.1716 10111.4 97.6425C10111.4 97.2397 10111 97.0682 10110.9 96.7011C10110.7 96.1068 10110.4 95.5434 10110.2 94.9634C10110.2 94.7664 10110 94.6061 10109.8 94.5441L10110 94.0348C10109.9 93.8271 10109.8 94.0736 10109.7 94.0077C10109.6 93.7782 10109.4 93.56 10109.4 93.247C10109.5 92.953 10109.1 92.8659 10109.1 92.592C10108.9 91.9971 10108.2 91.592 10108.4 90.8719C10107.9 90.4631 10107.8 89.8707 10107.5 89.3728C10107.3 89.14 10107.2 88.858 10107.3 88.5771L10107.3 88.5123C10107.3 88.2374 10106.8 88.2057 10107 87.8551C10106.3 87.1008 10106.2 86.0654 10106 85.1629C10105.5 83.7146 10104.9 82.2927 10104.7 80.7573C10104.6 79.9892 10104.3 79.2216 10104.2 78.4411C10103.9 76.6867 10103.5 74.9482 10103.4 73.1604C10103.4 72.4218 10103.2 71.6891 10103.2 70.9498L10103.2 70.0953C10103.1 68.8134 10103.1 67.5309 10103.2 66.2488C10103.2 65.9516 10103.2 65.6516 10103.3 65.3829C10103.5 65.0848 10103.2 64.8151 10103.2 64.4869C10103.3 64.0973 10103.5 63.7613 10103.4 63.335C10103.4 63.1002 10103.5 62.7507 10103.5 62.4783C10103.4 61.5926 10103.9 60.7709 10103.8 59.8875C10103.8 59.556 10103.9 59.2327 10104.1 58.9413C10104.4 57.9372 10104.3 56.8262 10104.8 55.8713C10105 55.3989 10105.1 54.8793 10105.1 54.3535L10105.1 54.1503C10105.1 53.9998 10105.1 53.8548 10105.2 53.7694C10105.6 53.4127 10105.6 52.9087 10105.7 52.4787C10105.9 52.0181 10105.9 51.5055 10106.1 51.0469C10106.4 50.6077 10106.6 50.1223 10106.7 49.6136C10106.8 48.7324 10107.2 48.0045 10107.5 47.2298C10107.7 46.8428 10107.7 46.3509 10108.2 46.1292C10108.5 46.0165 10108 45.627 10108.3 45.4607L10108.4 45.4437C10108.6 45.3518 10108.7 45.1344 10108.7 44.8644C10108.6 44.6175 10109.1 44.5269 10109 44.2646C10108.9 44.0022 10108.9 43.6411 10109.1 43.621C10109.4 43.5686 10109.2 43.1321 10109.5 43.1119C10109.5 43.1015 10109.5 43.0772 10109.5 43.0462C10109.8 42.1565 10110.5 41.5148 10110.8 40.6337C10111 40.1116 10111.3 39.6329 10111.7 39.2228C10112 38.8196 10112.3 38.3899 10112.6 37.9382C10113 37.1847 10113.7 36.6052 10114.2 35.8535C10114.3 35.6501 10114.8 35.8227 10114.6 35.324C10115 35.2657 10114.9 34.9062 10115.1 34.7161C10115.3 34.5805 10115.5 34.4727 10115.7 34.3963C10115.9 33.9376 10116.2 33.534 10116.6 33.2181C10117.3 32.4849 10118.1 31.7977 10118.9 31.1606L10119.5 30.6378C10120.4 29.9411 10121.3 29.2666 10122.4 28.8682C10122.7 28.7658 10122.6 28.4677 10122.8 28.3534C10124.2 27.6808 10125.5 26.8729 10126.9 26.4432C10127.6 26.2629 10128.1 25.851 10128.8 25.6616C10130 25.2809 10131.3 24.7323 10132.6 24.5327C10133.4 24.4149 10134.2 24.1661 10135 24.0252C10136.7 23.6853 10138.4 23.5482 10140.1 23.6168L10141.1 23.6839C10142.1 23.7438 10143 23.812 10143.9 23.9494C10144.4 24.0145 10144.8 24.2271 10145.2 24.2475C10145.6 24.2669 10146 24.3686 10146.3 24.5461C10146.6 24.6819 10146.9 24.4699 10147.2 24.6642C10147.4 24.8617 10147.7 24.9385 10148 24.8727L10148.1 24.8577C10148.2 24.7964 10148.5 25.0119 10148.7 25.1051C10149 25.2117 10149.4 25.3523 10149.7 25.5246C10149.9 25.6834 10150.3 25.3697 10150.4 25.793C10150.7 25.6043 10151 25.8665 10151.3 25.9805L10151.3 25.995C10151.6 26.0943 10151.9 26.2338 10152.2 26.3555L10153.2 26.7612C10153.4 26.9218 10153.7 27.0389 10154 27.108C10154.6 27.141 10155 27.4882 10155.6 27.5937C10156.2 27.7572 10156.8 27.9947 10157.3 28.3005C10157.8 28.5343 10158.3 28.4202 10158.8 28.7066C10159.3 29.0194 10159.8 29.2332 10160.4 29.3346C10160.9 29.3899 10161.4 29.7497 10161.9 29.7803L10162 29.782C10162.6 29.7687 10163.1 30.2259 10163.6 30.2873C10164.8 30.4211 10166 30.9373 10167.2 31.0942C10168.7 31.292 10170.1 31.6756 10171.7 31.8012C10172.6 31.8829 10173.6 31.9332 10174.6 32.0153C10175.6 32.0587 10176.6 32.0178 10177.6 31.8929C10178.8 31.7701 10180.1 31.5479 10181.3 31.2284C10182.5 30.9206 10183.6 30.4326 10184.8 30.1072C10185.4 29.9586 10185.9 29.7128 10186.4 29.5799C10187 29.4368 10187.6 29.06 10188.2 28.9146C10189.7 28.5508 10191.1 27.7841 10192.6 27.5876C10194.4 26.8097 10196.3 26.6739 10198.2 26.1518C10199 25.9082 10200 25.8904 10200.9 25.7791L10201.1 25.7537C10202.6 25.5317 10204.3 25.4712 10205.9 25.3954C10207.3 25.3379 10208.8 25.3774 10210.3 25.5135C10211.3 25.6027 10212.4 25.7431 10213.4 25.8123C10213.9 25.8408 10214.2 26.2103 10214.7 26.0279C10215.6 26.4429 10216.6 26.3081 10217.5 26.7554C10218.1 26.6818 10218.6 27.0087 10219.2 27.2744C10219.6 27.478 10220 27.2843 10220.4 27.549C10220.8 27.8254 10221.2 28.0021 10221.7 28.0613C10222.4 28.0783 10223 28.4638 10223.7 28.7264C10225.2 29.3368 10226.7 29.9733 10228.2 30.6359C10228.6 30.8533 10229.2 30.905 10229.6 31.3721C10229.9 31.782 10230.6 31.6739 10230.9 32.1446C10231 32.316 10231.2 32.0617 10231.4 32.2094C10231.8 32.4976 10232.3 32.4458 10232.6 32.9037C10232.8 33.2427 10233.4 33.1395 10233.6 33.5438L10233.7 33.6022C10233.8 33.8881 10234.4 33.3748 10234.4 33.9651C10235 34.1108 10235.4 34.5089 10235.9 34.8145C10236.3 35.0669 10236.8 35.0549 10237.1 35.4926C10237.4 35.8656 10238.1 35.7422 10238.3 36.2649C10239 36.3925 10239.4 37.0008 10240 37.2534C10240.5 37.4731 10240.9 37.7558 10241.3 38.094C10242 38.5846 10242.6 39.0562 10243.3 39.5108C10243.5 39.678 10243.8 39.8584 10244 40.051C10244.1 40.1559 10244.1 40.3404 10244.3 40.4185C10245.5 40.9143 10246.4 41.8255 10247.4 42.6487C10247.9 43.0696 10248.4 43.5337 10248.9 44.0367L10249.1 44.2058C10249.2 44.3724 10249.5 44.4993 10249.6 44.7165C10249.9 45.3212 10250.5 45.6868 10251 46.1023L10251 46.1721C10251.3 46.4026 10251.5 46.671 10251.7 46.9689C10251.8 47.0257 10251.8 47.1347 10251.8 47.1549C10252.7 47.5303 10253.1 48.3563 10253.6 48.9881C10254.2 49.599 10254.7 50.3155 10255.3 50.9099C10256.4 52.1086 10268.3 70.8907 10269.4 73.9786L10269.8 74.8623C10270.1 75.7474 10270.4 76.6373 10270.7 77.5366L10271 78.3023C10271.2 79.0693 10271.4 79.8404 10271.6 80.6163L10271.9 81.6522C10272.4 83.7248 10272.9 85.8037 10273.3 87.9134C10273.6 89.7958 10273.8 91.6878 10274 93.5823C10274.2 94.7985 10274.2 96.0107 10274.3 97.2315C10274.3 99.1826 10274.3 101.134 10274.3 103.085C10274.3 104.923 10273.9 106.717 10273.9 108.551C10273.5 109.592 10273.7 110.773 10273.3 111.807C10273.4 112.379 10273.1 112.902 10273 113.426C10272.9 113.967 10272.9 114.559 10272.6 115.073C10272.4 115.306 10272.6 115.648 10272.4 115.932C10272.3 116.162 10272.2 116.462 10272.2 116.749C10271.8 116.854 10272.2 117.193 10272 117.408C10271.8 117.642 10271.7 117.939 10271.7 118.254C10271.7 118.964 10271.2 119.532 10271.1 120.169C10271.1 120.821 10270.7 121.307 10270.6 121.879L10270.6 121.988C10270.5 122.749 10269.8 123.22 10269.7 123.928C10269.7 123.99 10269.5 124.021 10269.4 124.069C10269.4 124.234 10269.6 124.228 10269.7 124.375C10269.5 124.513 10269.3 124.683 10269.1 124.879C10268.9 125.164 10268.8 125.465 10268.7 125.777L10269.1 126.524C10268.8 126.867 10268.8 127.22 10268.5 127.471C10268.4 127.58 10268.4 127.985 10268.3 128.254C10268.3 128.608 10267.8 128.739 10267.8 129.041C10267.8 129.38 10267.8 129.719 10267.6 130.001C10266.4 132.778 10265.2 135.551 10264 138.318C10263.9 138.615 10263.9 139.015 10263.5 139.129C10263.8 139.632 10263.2 139.667 10263.1 140.006C10263 140.315 10262.8 140.596 10262.6 140.829C10262.2 141.28 10262.1 141.893 10261.8 142.427C10261.7 142.816 10261.5 143.167 10261.2 143.439C10260.9 143.657 10260.9 144.12 10260.6 144.455C10260.3 144.853 10260 145.296 10259.7 145.771C10259.6 146.123 10259.4 146.438 10259.2 146.68C10258.9 146.868 10259 147.358 10258.6 147.458C10258.4 148.085 10257.9 148.537 10257.5 149.053L10257.4 149.151C10256.5 150.486 10255.4 151.762 10254.3 152.973C10253.4 153.993 10252.5 155.029 10251.5 156.041C10251.2 156.367 10250.9 156.689 10250.6 156.992C10249.5 158.117 10248.3 159.178 10247 160.171C10245.9 161.02 10244.8 161.923 10243.6 162.725C10243 163.152 10242.4 163.714 10241.8 164.176C10240.3 165.266 10238.9 166.315 10237.3 167.288C10236 168.197 10234.6 168.977 10233.1 169.616C10232.7 169.77 10232.4 170.037 10232 170.216C10231.6 170.373 10231.1 170.562 10230.7 170.782C10230.2 171.121 10229.6 171.29 10229.1 171.598C10228.7 171.836 10228.1 171.567 10227.8 172.063C10227.5 172.423 10226.9 172.16 10226.6 172.578C10225.9 172.489 10225.5 173.044 10224.9 173.143L10224.9 173.153C10224.2 173.211 10223.6 173.605 10223 173.852C10222.4 174.134 10221.8 174.376 10221.2 174.576C10220 174.873 10219 175.451 10217.8 175.768C10216.7 176.069 10215.7 176.611 10214.6 176.684C10214.3 176.702 10214.3 176.939 10214.1 177.005C10213.9 177.075 10213.7 176.971 10213.5 177.06C10212.7 177.391 10211.9 177.659 10211.1 177.863C10210 178.19 10208.8 178.485 10207.7 178.821C10205.9 179.312 10204.1 179.71 10202.3 180.012C10201.1 180.227 10199.9 180.401 10198.7 180.587L10197.1 180.848C10196.2 180.977 10195.4 181.104 10194.6 181.216C10193.5 181.357 10192.5 181.427 10191.4 181.557C10190.6 181.657 10189.8 181.794 10188.9 181.93C10187.8 182.118 10186.6 182.265 10185.5 182.445C10183.8 182.692 10182.2 182.847 10180.6 182.911C10179.7 182.968 10178.9 182.971 10178.1 182.922C10177.6 182.882 10177.1 182.871 10176.7 182.889L10176.4 182.9C10175.4 182.973 10174.3 182.754 10173.3 182.664C10173 182.635 10172.7 182.537 10172.4 182.478L10172.2 182.455C10172 182.416 10171.7 182.358 10171.5 182.303L10171.3 182.263C10170.4 182.08 10169.5 181.739 10168.6 181.674L10168.4 181.665C10168.3 181.665 10168.3 181.649 10168.2 181.62C10167.3 181.109 10166.2 181.07 10165.3 180.64L10165.1 180.56C10164.3 180.109 10163.2 180.114 10162.4 179.597C10161.7 179.704 10161.2 179.21 10160.6 179.105C10159.1 178.832 10157.8 178.085 10156.4 177.515L10156.3 177.442C10154.8 176.869 10153.4 176.228 10151.9 175.625C10151 175.142 10150 174.58 10149.1 173.944C10148.9 173.766 10148.7 173.614 10148.5 173.49C10148.1 173.354 10147.8 173.049 10147.6 172.652Z" fill="#64FCD9"/>
<path fill-rule="evenodd" clip-rule="evenodd" d="M10168.6 91.5166C10167.5 95.6825 10165 98.9306 10161.1 101.559C10162.1 98.6542 10163.4 95.2554 10164.4 92.3508C10163.4 94.3324 10161.7 96.276 10159.8 97.3324C10161 92.9606 10163.5 89.4845 10163.5 83.9433C10163.5 81.9507 10161.4 80.4117 10161.5 79.6012C10161.5 78.7815 10162 78.0482 10162.3 77.297C10164.2 73.0938 10169.2 93.2402 10168.6 91.5166Z" fill="white"/>
<path d="M10248.4 34.1338C10249.4 34.1109 10249.8 35.4547 10249.8 36.4707C10249.9 37.9889 10249.9 39.5072 10250 41.0254C10250.4 40.2622 10251.7 40.4522 10252.2 41.1602C10252.7 41.8681 10252.7 42.8168 10252.6 43.6914C10252.9 41.7498 10253.7 39.8769 10254.9 38.335C10255.2 37.8511 10255.8 37.3539 10256.4 37.5391C10257 37.735 10257.2 38.5292 10257.2 39.1777C10257.4 44.8051 10255.7 50.4782 10252.5 55.0928C10251.8 55.9846 10251.5 57.0183 10251.3 58.0908C10251.4 58.84 10251.4 59.6475 10251.3 60.3213C10250.3 68.0235 10248.5 75.6329 10246.2 83.0283C10244.7 87.4282 10243 91.8281 10240.2 95.4668C10238.7 97.3857 10236.9 99.0534 10235.1 100.703C10228.8 106.444 10221.1 113.046 10214.6 118.568C10214.6 118.567 10214.8 118.26 10215.4 117.687C10215.2 117.854 10215 118.022 10214.8 118.188C10214.5 118.188 10212.4 114.236 10210.2 110.961C10208.5 108.344 10206.4 106.219 10206.6 106.076C10211.9 102.265 10217.8 99.1632 10222.7 94.9326C10230.8 87.9539 10236.4 79.188 10239.8 71.666C10244 62.1815 10245.4 55.6693 10245.9 55.0928C10244.1 54.8507 10242.5 53.4917 10242.1 51.7676C10241.6 49.9992 10242.3 47.9638 10243.7 46.8633C10245.4 45.6327 10245.9 43.4199 10246.1 41.375C10246.2 39.3302 10246.2 37.197 10247 35.3311C10247.3 34.7517 10247.7 34.1481 10248.4 34.1338Z" fill="white"/>
<path d="M10155.5 143.116C10156 144.441 10157.2 146.134 10157.2 146.134C10157.2 146.134 10149 157.65 10145.9 164.229C10143 170.343 10140.1 184.501 10131.2 176.001C10135.4 163.955 10139.7 151.844 10145.9 140.668C10148.7 135.585 10151.2 133.781 10151.2 133.781C10151.2 133.781 10153.9 138.48 10155.5 143.116Z" fill="white"/>
<path fill-rule="evenodd" clip-rule="evenodd" d="M10164.5 74.792C10163.9 75.309 10164.4 76.3193 10165.1 76.7602C10165.7 77.201 10166.6 77.535 10166.8 78.2962C10165.8 78.3578 10164.9 77.5056 10163.9 77.6182C10162.8 77.7428 10162.1 79.0651 10162.3 80.1598C10162.5 81.2545 10163.4 82.1247 10164.2 82.8528C10165.5 83.9874 10167 84.9408 10168.6 85.6776C10169.2 85.9474 10169.8 86.7628 10169.2 87.0479C10168.7 86.745 10168.2 86.442 10167.6 86.1391C10168.5 88.8896 10169.4 91.6959 10171.2 94.0126C10172.9 96.3294 10175.6 98.1092 10178.5 97.9426C10179.1 97.9105 10179.9 98.0302 10179.8 98.5846C10179.4 98.6714 10179.1 98.7583 10178.7 98.8451C10179.8 99.8286 10181.5 100.069 10183 99.8159C10184.5 99.5626 10185.9 98.872 10187.2 98.1612C10189.9 96.7355 10192.6 95.146 10194.5 92.8126C10195.9 91.2114 10196.8 89.3165 10197.6 87.3787C10200.1 81.2467 10201 74.4869 10200.2 67.9267C10200.1 67.5971 10199.9 67.1607 10199.6 67.2631C10192 69.7442 10183.3 69.0612 10176.1 65.4068C10174.6 64.6161 10173 63.6366 10172.1 62.1437C10175.5 64.1889 10179.1 65.7479 10182.9 66.7554C10186.6 67.7431 10190.4 68.2001 10194.2 67.6314C10198 67.0628 10201.7 65.4133 10204.3 62.6421C10207.9 58.8651 10209.2 53.329 10208.7 48.1476C10208.2 42.9663 10206 38.0812 10203.4 33.5723C10202.7 36.6504 10200 39.0014 10197.1 40.1239C10194.1 41.2464 10190.8 41.3137 10187.7 41.1587C10184.5 41.0037 10181.3 40.6408 10178.2 40.9541C10176.2 41.1481 10174.2 41.6748 10172.8 43.1324C10170.8 45.3512 10171.3 48.7657 10171.8 51.6979C10171 51.234 10170.5 50.1303 10170.7 49.1702C10167.2 49.8169 10164.7 53.0821 10163.8 56.5328C10162.9 59.9834 10163.3 63.6226 10163.7 67.1605C10163.9 68.6621 10164.1 70.1638 10164.3 71.6654C10164.4 72.5823 10164.6 73.5651 10165.2 74.2394C10167.2 76.3619 10168.6 79.0373 10169.2 81.8837C10171.3 78.2201 10172.8 74.1766 10173.6 69.9991C10173.7 69.0583 10173.9 68.0746 10174.4 67.2868C10175 66.499 10176 65.9844 10176.9 66.412C10173.5 71.6132 10173.3 78.6641 10169.1 83.2387C10168.4 81.5013 10167.7 79.7639 10167.1 78.0265C10166.5 76.7008 10165.8 75.2222 10164.5 74.792Z" fill="white"/>
<path fill-rule="evenodd" clip-rule="evenodd" d="M10214.7 126.43C10212 128.363 10209.2 130.181 10206.4 131.877C10205.7 136.253 10204.3 144.664 10203.1 151.752C10202.6 154.976 10202.6 157.719 10202.2 159.974C10201.3 164.559 10197.6 166.996 10193.1 166.774C10166.8 165.475 10166.4 179.424 10165.4 170.413C10164.3 161.403 10163.9 152.331 10164 143.265C10162 144.762 10159.9 146.258 10157.9 147.755C10157.2 146.775 10151.5 137.562 10151.8 134.205C10152.1 130.545 10156.2 125.23 10160.8 121.046C10163.7 118.439 10167.1 116.541 10169.1 114.93C10169.9 114.279 10174.2 110.421 10175.2 106.654C10176.2 102.711 10174 98.8557 10176 98.3396C10177.5 97.9322 10178.5 99.1406 10180.2 99.9098C10181.5 100.501 10183.7 99.4503 10184.2 100.286C10184.7 101.122 10184 104.425 10185.3 105.695C10187.7 108.048 10192.7 108.442 10193.1 108.4C10198.4 107.831 10204 105.393 10205.6 106C10211.2 108.084 10215.4 118.553 10216.3 122.145C10216.5 122.964 10216.7 123.849 10216.4 124.637C10216.1 125.412 10215.4 125.946 10214.7 126.43Z" fill="white"/>
<path fill-rule="evenodd" clip-rule="evenodd" d="M10208.2 107.82C10208.1 107.606 10207.9 107.416 10207.7 107.25C10207 106.443 10206.5 106.165 10206.6 106.075C10211.9 102.264 10217.8 99.1632 10222.7 94.9326C10230.8 87.9538 10236.4 79.1876 10239.8 71.6655C10242.4 65.909 10238.7 79.1153 10230.2 91.8214C10223.1 102.271 10208.5 108.191 10208.2 107.82Z" fill="#E7EAEE"/>
<path d="M10156.4 146.134C10156.6 146.354 10156.5 146.781 10156.3 147.069C10150 156.516 10145.1 166.916 10142.2 177.859C10142 178.516 10141.9 179.214 10141.3 179.665C10140.8 180.116 10139.9 180.144 10139.6 179.548C10139.3 179.117 10139.5 178.587 10139.7 178.129C10141.8 172.726 10143.9 167.315 10146.4 162.106C10148.9 156.951 10151.9 152.006 10155.2 147.339C10155.6 146.884 10155.9 146.419 10156.4 146.134ZM10203.3 32C10206.9 37.1268 10209.5 43.0373 10209.8 49.2529C10210.1 55.4686 10207.7 61.9979 10202.7 65.75C10200.8 67.2329 10200.9 70.1512 10201 72.6064C10201.3 77.9989 10200.7 83.5367 10198.4 88.415C10196 93.2935 10191.9 97.4572 10186.8 99.1396C10184.1 100.034 10184 104.313 10186.1 106.224C10188.3 108.134 10191.5 108.224 10194.3 107.921C10207.2 106.557 10218.9 99.3026 10227.5 89.6689C10236.1 80.0353 10241.9 68.1544 10246.1 55.9688C10241.2 77.3896 10226.3 96.3065 10206.6 106.076C10211.4 110.312 10214.8 115.986 10216.3 122.146C10216.5 122.965 10216.7 123.849 10216.4 124.637C10216.1 125.412 10215.4 125.947 10214.7 126.431C10212 128.364 10209.2 130.182 10206.4 131.878C10205 141.498 10203.6 151.119 10202.2 160.739C10200.7 147.958 10208.3 134.6 10203.8 122.534C10205.4 124.988 10206.2 128.003 10205.9 130.928C10208.6 129.613 10211.2 128.079 10213.6 126.346C10214.3 125.883 10214.9 125.372 10215.3 124.64C10215.7 123.728 10215.4 122.672 10215.2 121.712C10213.9 117.001 10211.5 112.582 10208.3 108.865C10207.3 107.667 10205.9 106.437 10204.3 106.873C10200.6 107.951 10196.8 108.768 10192.9 109.315C10192.1 112.927 10190.6 116.391 10188.6 119.504C10188.1 120.326 10187.5 121.159 10186.6 121.564C10185.3 122.15 10183.8 121.691 10182.5 121.149C10178.3 119.445 10174.5 116.954 10171.3 113.85C10164.2 117.429 10158 123.006 10153.7 129.787C10152.1 132.312 10152.2 135.625 10153.3 138.42C10154.3 141.215 10156.2 143.608 10158 145.952C10161.6 144.987 10164.4 141.537 10164.6 137.824C10164.7 136.129 10164.4 134.037 10165.8 133.124C10164.6 144.582 10164.8 156.211 10166.7 167.597C10166.8 168.786 10166.6 170.541 10165.4 170.414C10164.3 161.404 10163.9 152.332 10164 143.266C10162 144.762 10159.9 146.259 10157.9 147.756C10155.1 143.545 10152.8 138.98 10151.1 134.205C10144 147.884 10137.3 161.829 10131.2 176C10135.4 163.954 10139.7 151.844 10145.9 140.668C10152.1 129.492 10160.4 119.19 10171.2 112.336C10176.6 108.886 10177 99.8023 10171.9 95.8975C10170.4 94.7718 10169.2 93.2392 10168.6 91.5156C10167.4 95.402 10164.8 98.847 10161.4 101.064C10162.4 98.1598 10163.4 95.2543 10164.4 92.3496C10163.4 94.3312 10161.8 96.0012 10159.9 97.0576C10161.1 92.6859 10162.3 88.3141 10163.6 83.9424C10163.4 88.0488 10162.5 92.1274 10160.9 95.9199C10162.4 93.3937 10163.9 90.867 10165.5 88.3408C10165.5 92.0859 10164.6 95.84 10162.9 99.1807C10164.5 97.3215 10166.1 95.4157 10167 93.1377C10167.9 90.8597 10167.9 88.0994 10166.5 86.1348C10164.8 83.8414 10161.2 82.438 10161.5 79.6006C10161.5 78.7809 10162 78.047 10162.3 77.2959C10164.2 73.0927 10163.1 68.2352 10162.5 63.6592C10162 59.0831 10162.3 53.7134 10166 50.9189C10167.6 49.6658 10170 48.7611 10170.2 46.7061C10170.8 41.968 10176.4 39.6205 10181.2 39.6689C10186 39.7174 10190.9 41.1332 10195.5 39.7363C10199.1 38.6162 10202.1 35.6356 10203.3 32ZM10176 98.3398C10176.7 102.392 10176.5 106.615 10175.3 110.572C10175.2 110.975 10175.1 111.387 10174.8 111.712C10174.2 112.461 10173 112.589 10172.5 113.386C10175.8 116.584 10179.9 118.996 10184.3 120.364C10185.4 120.71 10186.8 120.906 10187.5 120.003C10190 116.93 10191.4 113.011 10191.5 109.059C10189.3 108.703 10187 108.109 10185.3 106.667C10183.5 105.225 10182.5 102.744 10183.3 100.646C10181.5 101.057 10179.6 100.648 10178.2 99.5596C10177.5 99.0447 10176.8 98.3532 10176 98.3398ZM10248.8 34.1338C10249.8 34.1109 10250.1 35.4547 10250.2 36.4707C10250.2 37.9889 10250.3 39.5072 10250.4 41.0254C10250.8 40.2626 10252.1 40.4523 10252.6 41.1602C10253.1 41.8681 10253.1 42.8167 10253 43.6914C10253.3 41.7499 10254.1 39.8769 10255.3 38.335C10255.6 37.8512 10256.2 37.3542 10256.8 37.5391C10257.4 37.735 10257.6 38.5292 10257.6 39.1777C10257.8 44.8052 10256.1 50.4791 10252.9 55.0938C10251.8 56.5974 10251.6 58.5031 10251.3 60.3213C10250.3 68.0236 10248.6 75.6328 10246.2 83.0283C10244.7 87.4282 10243 91.8281 10240.2 95.4668C10238.7 97.3859 10236.9 99.0533 10235.1 100.703C10228.8 106.444 10222.5 112.077 10216 117.6C10215.5 117.6 10215.8 116.712 10216.2 116.354C10223.4 110.061 10231 104.008 10237.5 96.9131C10239 95.243 10240.5 93.5069 10241.6 91.5605C10242.7 89.687 10243.5 87.646 10244.3 85.5977C10247.6 76.5931 10249.8 67.2294 10251.1 57.7295C10251.2 57.0476 10251.2 56.3085 10250.9 55.7129C10255.2 51.093 10257.3 44.5495 10256.6 38.29C10253.5 39.7033 10254.8 44.8225 10252.4 47.1797C10252.4 45.6639 10252.3 44.1477 10252.3 42.6318C10252.2 42.1955 10252.2 41.6748 10251.8 41.4824C10251.1 41.1651 10250.6 42.079 10250.5 42.7969C10250.4 43.5147 10250.3 44.4584 10249.6 44.5771C10249.8 41.268 10249.6 37.9288 10249 34.6699C10247.3 36.2441 10247.4 38.875 10247.3 41.1836C10247.3 43.4922 10246.7 46.2477 10244.5 47.0498C10245.3 47.6314 10246.2 46.5425 10247 46.1494C10248.5 45.4919 10250.1 47.3093 10249.7 48.8418C10249.3 50.3744 10247.6 51.2469 10246 51.2402C10246.8 49.9561 10249.3 49.8459 10249.2 48.3506C10249.1 47.6109 10248.3 47.1025 10247.6 47.1074C10246.8 47.1125 10246.2 47.486 10245.5 47.8496C10244.4 48.4913 10243.1 49.3639 10243.1 50.6709C10243 52.5751 10245.6 53.4084 10246.4 55.1133C10244.6 54.9246 10242.9 53.5368 10242.5 51.7686C10242 50.0003 10242.7 47.9649 10244.1 46.8643C10245.8 45.6338 10246.3 43.4208 10246.5 41.376C10246.6 39.3311 10246.6 37.1972 10247.4 35.3311C10247.7 34.7517 10248.1 34.1483 10248.8 34.1338ZM10203.4 33.5732C10202.7 36.6513 10200 39.0025 10197.1 40.125C10194.1 41.2475 10190.8 41.3142 10187.7 41.1592C10184.5 41.0042 10181.3 40.6418 10178.2 40.9551C10176.2 41.1491 10174.2 41.6754 10172.8 43.1328C10170.8 45.3515 10171.3 48.7661 10171.8 51.6982C10171 51.2344 10170.5 50.131 10170.7 49.1709C10167.2 49.8176 10164.7 53.0827 10163.8 56.5332C10162.9 59.9838 10163.3 63.6233 10163.7 67.1611C10163.9 68.6627 10164.1 70.1644 10164.3 71.666C10164.4 72.5829 10164.6 73.5659 10165.2 74.2402C10167.2 76.3626 10168.6 79.0384 10169.2 81.8848C10171.3 78.2212 10172.8 74.1775 10173.6 70C10173.7 69.0594 10173.9 68.0758 10174.4 67.2881C10175 66.5003 10176 65.9855 10176.9 66.4131C10173.5 71.6142 10173.3 78.6646 10169.1 83.2393C10168.4 81.502 10167.7 79.7646 10167 78.0273C10166.5 76.7017 10165.8 75.2231 10164.5 74.793C10163.9 75.3099 10164.4 76.3199 10165.1 76.7607C10165.7 77.2016 10166.6 77.5358 10166.8 78.2969C10165.8 78.3585 10164.9 77.5065 10163.9 77.6191C10162.8 77.7438 10162.1 79.0656 10162.3 80.1602C10162.5 81.2549 10163.4 82.1254 10164.2 82.8535C10165.5 83.9881 10167 84.9419 10168.6 85.6787C10169.2 85.9486 10169.8 86.7637 10169.2 87.0488C10168.7 86.7459 10168.2 86.4426 10167.6 86.1396C10168.5 88.8901 10169.4 91.6969 10171.2 94.0137C10172.9 96.3303 10175.6 98.11 10178.5 97.9434C10179.1 97.9112 10179.9 98.0309 10179.8 98.585C10179.4 98.6718 10179.1 98.7589 10178.7 98.8457C10179.8 99.8291 10181.5 100.07 10183 99.8164C10184.5 99.5631 10185.9 98.8728 10187.2 98.1621C10189.9 96.7364 10192.6 95.1468 10194.5 92.8135C10195.9 91.2124 10196.8 89.3175 10197.6 87.3799C10200.1 81.2479 10201 74.4878 10200.2 67.9277C10200.1 67.5982 10199.9 67.1613 10199.6 67.2637C10192 69.7448 10183.3 69.0617 10176.1 65.4072C10174.6 64.6166 10173 63.6372 10172.1 62.1445C10175.5 64.1897 10179.1 65.7484 10182.9 66.7559C10186.6 67.7435 10190.4 68.2004 10194.2 67.6318C10198 67.0632 10201.7 65.4137 10204.3 62.6426C10207.9 58.8656 10209.2 53.3296 10208.7 48.1484C10208.2 42.9671 10206 38.0822 10203.4 33.5732ZM10178.1 89.6025C10178.2 89.6219 10178.4 89.8324 10178.3 89.9951C10178 90.4774 10178.7 90.9259 10179.2 91.0654C10181 91.5341 10182.8 92.005 10184.6 92.1074C10186.4 92.2098 10188.3 91.9195 10189.9 90.957C10190.4 90.6613 10191 90.2972 10191.5 90.5996C10191.1 91.7373 10189.1 91.8007 10189 93.0029C10188.9 93.6582 10188.4 94.2318 10187.7 94.2627C10187.1 94.2934 10186.5 93.7771 10186.4 93.1289C10186.3 93.0265 10186.2 92.9855 10186.1 92.9678C10185.7 92.886 10185.2 92.8439 10184.7 93.0098C10184.3 93.1757 10183.9 93.6015 10183.9 94.0801C10184 94.6203 10183.3 94.9292 10182.8 94.9336C10182.2 94.9382 10181.6 94.7262 10181.3 94.2324C10181 93.7386 10181.1 92.947 10181.7 92.7451C10180.4 92.2654 10179.2 91.7854 10177.9 91.3057C10177.6 91.1847 10177.3 91.0621 10176.9 91.1182C10176.7 91.1531 10176.5 91.2562 10176.3 91.2432C10176.1 91.2301 10175.9 91.0127 10176 90.8232C10176 90.7523 10176.1 90.7065 10176.2 90.6641C10176.6 90.3715 10177.1 90.0787 10177.5 89.7861C10177.7 89.6866 10177.9 89.5835 10178.1 89.6025ZM10183.3 92.917C10183.1 92.6588 10182.6 92.6968 10182.4 92.9326C10182.2 93.1684 10182.1 93.5324 10182.1 93.8633C10182.4 94.0192 10182.8 93.9854 10183 93.7822C10183.3 93.579 10183.4 93.2193 10183.3 92.917ZM10188.4 92.7949C10188.2 92.5442 10187.9 92.6425 10187.6 92.7725C10187.5 92.8414 10187.3 92.9337 10187.3 93.0859C10187.3 93.2729 10187.5 93.417 10187.7 93.3945C10187.9 93.372 10188 93.241 10188.2 93.1162L10188.2 93.1113C10188.2 92.9805 10188.3 92.8645 10188.4 92.7949ZM10189.7 76.5615C10190 76.4505 10190.4 76.6791 10190.4 76.998C10189.4 77.9158 10189.1 79.3221 10189.2 80.6367C10189.2 81.9514 10189.6 83.24 10189.7 84.5498C10189.8 85.4812 10189.7 86.5693 10188.9 87.1113C10188.4 87.4997 10187.6 87.4838 10187 87.4521C10186.6 87.4335 10186.1 87.2536 10186.1 86.8682C10186.2 86.5954 10186.5 86.4912 10186.8 86.4893C10187.3 86.4856 10187.9 86.6397 10188.3 86.3145C10188.8 85.9852 10188.8 85.3483 10188.7 84.8076C10188.5 82.2729 10188.1 79.5978 10189.1 77.2764C10189.2 76.9813 10189.4 76.6729 10189.7 76.5615ZM10185.3 76.8037C10185.6 76.7591 10185.9 77.1015 10185.9 77.4238C10185.8 77.7459 10185.6 78.0285 10185.4 78.2559C10184.6 79.0797 10183.4 79.4603 10182.3 79.4668C10181.1 79.4732 10180 79.1356 10179 78.6885C10178.7 78.5918 10178.5 78.4849 10178.3 78.3008C10178.1 78.1165 10178.1 77.8347 10178.2 77.6055C10178.3 77.3762 10178.6 77.2732 10178.8 77.4551C10179.6 78.2812 10180.8 78.4954 10181.9 78.5146C10182.9 78.532 10184.1 78.3455 10184.6 77.4805C10184.8 77.2088 10185 76.8489 10185.3 76.8037ZM10192.8 77.6094C10192.9 77.3459 10193.3 77.2758 10193.6 77.3779C10193.9 77.4801 10194.1 77.6985 10194.3 77.8779C10195.3 78.656 10196.9 78.678 10198 77.9287C10198.1 77.7942 10198.3 77.6306 10198.6 77.627C10198.8 77.6233 10199 77.9128 10198.9 78.0625C10197.6 79.1632 10195.6 79.5065 10194 78.9092C10193.6 78.7442 10193.1 78.4969 10192.9 78.1094C10192.8 77.9579 10192.7 77.7724 10192.8 77.6094ZM10193.8 74.5811C10195.1 73.9686 10196.8 75.15 10198.2 74.6182C10198.4 74.5288 10198.6 74.3901 10198.9 74.4141C10199.1 74.4382 10199.3 74.7595 10199.1 74.8828C10198.3 75.346 10197.3 75.5171 10196.4 75.3467C10196 75.2667 10195.6 75.1151 10195.1 75.0664C10194.7 75.0178 10194.2 75.0937 10193.9 75.3916C10193.7 75.5771 10193.3 75.3884 10193.3 75.1436C10193.3 74.8987 10193.5 74.694 10193.8 74.5811ZM10182.9 73.0684C10183.7 73.0438 10184.7 73.3252 10185.2 73.9971C10185.3 74.0856 10185.3 74.1902 10185.3 74.2998C10185.3 74.4872 10185 74.5775 10184.9 74.5303C10184.7 74.483 10184.5 74.347 10184.3 74.2373C10183.4 73.5754 10182 73.8614 10180.9 74.2607C10179.8 74.6601 10178.6 75.1543 10177.5 74.8262C10177.3 74.7686 10177 74.6371 10177.1 74.4375C10177.1 74.1655 10177.5 74.1254 10177.8 74.1367C10178.6 74.1716 10179.5 73.9146 10180.3 73.6465C10181.1 73.3784 10182 73.093 10182.9 73.0684Z" fill="#00160A"/>
<path fill-rule="evenodd" clip-rule="evenodd" d="M10183.3 100.646C10182.8 100.767 10182.3 100.817 10181.7 100.8C10180.5 100.758 10179 105.19 10181.7 110.245C10184.4 115.212 10189.5 117.199 10190.1 115.627C10191 113.548 10191.5 111.309 10191.5 109.059C10189.3 108.704 10187 108.109 10185.3 106.667C10183.5 105.225 10182.5 102.744 10183.3 100.646Z" fill="#E7EAEE"/>
<ellipse cx="10173.6" cy="87.7328" rx="1.6" ry="1.6" fill="#FFB61D"/>
<ellipse cx="10193.9" cy="88.266" rx="1.6" ry="1.6" fill="#FFB61D"/>
<path fill-rule="evenodd" clip-rule="evenodd" d="M10176.6 145.683C10177.1 145.015 10178.3 145.339 10179.2 145.574C10181.5 146.198 10184.4 145.498 10186.1 143.868C10187.9 142.228 10191.1 144.186 10193.5 143.175C10194.8 142.566 10196 140.9 10197.4 141.329C10199.1 141.856 10201.2 141.437 10202.6 140.315L10202.6 139.982L10202.6 139.246C10201.2 140.483 10199 140.964 10197.2 140.414C10195.8 139.985 10194.7 141.651 10193.3 142.26C10191 143.27 10187.7 141.313 10186 142.953C10184.2 144.55 10181.5 145.255 10179.1 144.694L10178.7 144.574C10177.9 144.361 10176.9 144.178 10176.4 144.768C10174.8 146.628 10171.6 147.398 10169.3 146.493L10169.6 147.45L10169.7 147.498C10172 148.258 10175 147.478 10176.6 145.683ZM10174.4 135.22C10175 134.592 10176.1 134.93 10177 135.176C10179.3 135.83 10182.2 135.225 10184 133.701C10185.8 132.167 10189 134.122 10191.3 133.205C10192.7 132.653 10193.9 131.08 10195.3 131.524C10197 132.07 10203.2 128.807 10203.2 128.807C10201.7 128.764 10197.1 131.192 10195.3 130.68L10195.2 130.642C10193.8 130.197 10192.6 131.77 10191.2 132.322C10188.8 133.239 10185.7 131.284 10183.9 132.818C10182.1 134.311 10179.3 134.923 10177 134.331L10176.5 134.204C10175.7 133.981 10174.8 133.783 10174.2 134.337C10172.6 136.086 10167.9 135.325 10167.1 135.829C10167.1 135.829 10172.7 136.907 10174.4 135.22Z" fill="#FFB61D"/>
<path fill-rule="evenodd" clip-rule="evenodd" d="M10176.1 165.513C10176.6 164.845 10177.8 165.169 10178.7 165.404C10181.1 166.028 10183.9 165.328 10185.7 163.698C10187.4 162.058 10190.7 164.016 10193 163.005C10194.4 162.396 10195.5 160.73 10196.9 161.16C10198.6 161.686 10200.8 161.267 10202.2 160.145L10202.2 159.812L10202.2 159.076C10200.8 160.313 10198.5 160.794 10196.7 160.244C10195.3 159.815 10194.2 161.481 10192.8 162.09C10190.5 163.1 10187.2 161.143 10185.5 162.783C10183.8 164.38 10181 165.085 10178.7 164.524L10178.2 164.404C10177.4 164.192 10176.4 164.008 10175.9 164.598C10174.3 166.458 10171.1 167.228 10168.8 166.323L10169.1 167.28L10169.2 167.328C10171.5 168.088 10174.5 167.308 10176.1 165.513ZM10173.9 155.05C10174.5 154.422 10175.6 154.761 10176.5 155.006C10178.8 155.661 10181.7 155.055 10183.5 153.531C10185.4 151.997 10188.5 153.952 10190.8 153.035C10192.3 152.483 10193.5 150.91 10194.8 151.355C10196.5 151.9 10202.7 148.637 10202.7 148.637C10201.2 148.594 10196.6 151.022 10194.8 150.51L10194.7 150.472C10193.3 150.027 10192.1 151.6 10190.7 152.152C10188.4 153.069 10185.2 151.114 10183.4 152.648C10181.6 154.142 10178.8 154.753 10176.5 154.161L10176.1 154.034C10175.3 153.811 10174.3 153.613 10173.8 154.167C10172.1 155.916 10167.5 155.155 10166.6 155.659C10166.6 155.659 10172.3 156.737 10173.9 155.05Z" fill="#FFB61D"/>
<path fill-rule="evenodd" clip-rule="evenodd" d="M10171.2 52.6189C10172.8 53.5685 10178.4 43.1324 10186.9 43.1324C10204.7 43.1324 10206 38.0812 10203.4 33.5723C10202.7 36.6504 10200 39.0014 10197.1 40.1239C10194.1 41.2464 10190.8 41.3137 10187.7 41.1587C10184.5 41.0037 10181.3 40.6408 10178.2 40.9541C10176.2 41.1481 10174.2 41.6748 10172.8 43.1324C10170.8 45.3512 10171.3 48.7657 10171.8 51.6979C10171 51.234 10170.5 50.1303 10170.7 49.1702C10167.2 49.8169 10164.7 53.0821 10163.8 56.5328C10162.9 59.9834 10163.3 63.6226 10163.7 67.1605C10163.9 68.6621 10164.1 70.1638 10164.3 71.6654C10164.3 71.6654 10165.1 59.5684 10166.2 56.5328C10167.7 52.4003 10171.6 53.1926 10171.2 52.6189Z" fill="#E7EAEE"/>
<path fill-rule="evenodd" clip-rule="evenodd" d="M27.3351 924.27C27.2935 926.175 29.8282 927.008 30.6773 928.713C28.8516 928.524 27.2091 927.136 26.7193 925.368C26.2295 923.599 26.9239 921.564 28.3925 920.463C30.0344 919.233 30.5686 917.02 30.733 914.975C30.8974 912.93 30.8219 910.796 31.6744 908.93C31.9391 908.351 32.3942 907.747 33.0312 907.733C34.048 907.71 34.4128 909.054 34.4535 910.07C34.5144 911.589 34.5752 913.107 34.636 914.625C35.0649 913.862 36.3246 914.051 36.8396 914.759C37.3545 915.467 37.3424 916.416 37.3089 917.291C37.5486 915.349 38.3248 913.477 39.529 911.935C39.907 911.451 40.4752 910.954 41.0607 911.139C41.6795 911.335 41.832 912.128 41.8533 912.777C42.0389 918.404 40.3542 924.078 37.1272 928.693C36.0757 930.196 35.838 932.102 35.5925 933.92C34.5525 941.623 32.8234 949.232 30.4325 956.628C29.01 961.028 27.3121 965.427 24.4581 969.066C22.953 970.985 21.1564 972.653 19.36 974.303C13.1092 980.044 6.75946 985.677 0.314665 991.199C-0.233316 991.199 0.018317 990.311 0.432704 989.952C7.70714 983.66 15.237 977.607 21.7313 970.512C23.2601 968.842 24.7366 967.106 25.8931 965.16C27.0064 963.286 27.8067 961.245 28.5507 959.197C31.8215 950.192 34.102 940.829 35.3379 931.329C35.4266 930.647 35.4995 929.908 35.1557 929.313C39.4452 924.693 41.578 918.149 40.8348 911.89C37.7642 913.303 39.1083 918.422 36.6858 920.779C36.6307 919.263 36.5757 917.748 36.5207 916.232C36.5049 915.795 36.4375 915.274 36.0451 915.082C35.3977 914.765 34.8384 915.678 34.7728 916.396C34.7071 917.114 34.5813 918.058 33.8701 918.176C34.1032 914.867 33.9065 911.528 33.2864 908.269C31.5968 909.844 31.6586 912.474 31.6163 914.783C31.5739 917.092 30.9742 919.847 28.8085 920.649C29.5563 921.23 30.4394 920.142 31.3013 919.749C32.7435 919.091 34.3958 920.909 33.9924 922.442C33.5891 923.974 31.8694 924.846 30.2843 924.839C31.0559 923.555 33.5293 923.445 33.4423 921.95C33.3992 921.21 32.5986 920.702 31.8575 920.707C31.1164 920.712 30.4343 921.086 29.7886 921.449C28.6492 922.091 27.3637 922.963 27.3351 924.27Z" fill="#00160A"/>
</svg>
