<svg width="45" height="58" viewBox="0 0 45 58" fill="none" xmlns="http://www.w3.org/2000/svg">
<path d="M12.2395 46.1818C12.7372 45.2199 13.2042 44.2354 13.7367 43.2971C18.3909 35.1283 23.8962 27.6545 29.7849 20.4981C33.8081 15.605 38.0025 10.882 42.4518 6.43296C42.8436 6.04004 43.29 5.12722 43.8427 5.6429C44.4208 6.18449 43.6034 6.74485 43.2919 7.19734C40.5109 11.2083 37.6391 15.1474 34.5993 18.9412C27.9545 27.2373 21.6613 35.8326 15.7019 44.7081C15.104 45.6004 14.4111 46.4197 13.7308 47.2423C13.3938 47.6496 12.9558 47.8716 12.4754 47.4904C12.0488 47.1474 12.1364 46.6794 12.2395 46.1818Z" fill="#F05658"/>
<path d="M37.7615 44.0054C37.4278 44.2596 37.0272 44.5924 36.6034 44.8903C33.2314 47.2493 29.6256 49.1619 26.1356 51.2925C24.7649 52.1312 23.4016 52.9767 22.0203 53.7837C21.5846 54.0352 21.0508 54.386 20.6446 53.774C20.2798 53.2162 20.6352 52.7271 20.9563 52.2915C21.4807 51.5869 22.1459 51.0491 22.8493 50.5792C27.2174 47.6779 31.8061 45.2628 36.6877 43.5263C36.9447 43.4349 37.2237 43.3445 37.4874 43.3415C37.7775 43.3406 37.8871 43.5667 37.7615 44.0054Z" fill="#F05658"/>
<path d="M4.48408 27.5427C4.85083 27.7159 4.89703 28.065 4.91161 28.3961C4.95548 29.4088 5.04669 30.429 4.9844 31.4379C4.72952 35.3995 5.13326 39.3079 5.70824 43.2082C5.79919 43.8337 6.16665 44.657 5.25806 44.9094C4.43447 45.1409 4.02776 44.4325 3.79878 43.7467C2.716 40.5168 2.32506 37.1654 2.50225 33.7464C2.60011 31.8276 2.98311 29.9692 3.7546 28.2272C3.90808 27.8824 4.071 27.5353 4.48929 27.5392L4.48408 27.5427Z" fill="#F05658"/>
</svg>
