<svg width="41" height="41" viewBox="0 0 41 41" fill="none" xmlns="http://www.w3.org/2000/svg">
<path d="M13.6667 3.41797V8.54297" stroke="#4D5761" stroke-width="1.5" stroke-miterlimit="10" stroke-linecap="round" stroke-linejoin="round"/>
<path d="M27.3333 3.41797V8.54297" stroke="#4D5761" stroke-width="1.5" stroke-miterlimit="10" stroke-linecap="round" stroke-linejoin="round"/>
<path d="M35.875 14.5221V23.2859C34.3546 22.073 32.4242 21.3555 30.3229 21.3555C28.2217 21.3555 26.2571 22.09 24.7196 23.3371C22.6525 24.96 21.3542 27.5055 21.3542 30.3242C21.3542 31.9984 21.8325 33.6042 22.6525 34.9367C23.2846 35.9788 24.1046 36.8842 25.0783 37.5846H13.6667C7.6875 37.5846 5.125 34.168 5.125 29.043V14.5221C5.125 9.39714 7.6875 5.98047 13.6667 5.98047H27.3333C33.3125 5.98047 35.875 9.39714 35.875 14.5221Z" stroke="#4D5761" stroke-width="1.5" stroke-miterlimit="10" stroke-linecap="round" stroke-linejoin="round"/>
<path d="M11.9583 18.793H22.2083" stroke="#4D5761" stroke-width="1.5" stroke-miterlimit="10" stroke-linecap="round" stroke-linejoin="round"/>
<path d="M11.9583 27.332H16.4341" stroke="#4D5761" stroke-width="1.5" stroke-miterlimit="10" stroke-linecap="round" stroke-linejoin="round"/>
<path d="M39.2917 30.3242C39.2917 31.9984 38.8133 33.6042 37.9933 34.9367C37.515 35.7567 36.9171 36.4742 36.2167 37.0551C34.645 38.4559 32.595 39.293 30.3229 39.293C28.3584 39.293 26.5475 38.6609 25.0783 37.5846C24.1046 36.8842 23.2846 35.9788 22.6525 34.9367C21.8325 33.6042 21.3542 31.9984 21.3542 30.3242C21.3542 27.5055 22.6525 24.96 24.7196 23.3371C26.2571 22.09 28.2217 21.3555 30.3229 21.3555C32.4242 21.3555 34.3546 22.073 35.875 23.2859C37.9592 24.9259 39.2917 27.4713 39.2917 30.3242Z" stroke="#4D5761" stroke-width="1.5" stroke-miterlimit="10" stroke-linecap="round" stroke-linejoin="round"/>
<path d="M30.3229 34.5924C30.3229 32.2349 32.2362 30.3216 34.5937 30.3216C32.2362 30.3216 30.3229 28.4083 30.3229 26.0508C30.3229 28.4083 28.4096 30.3216 26.0521 30.3216C28.4096 30.3216 30.3229 32.2349 30.3229 34.5924Z" stroke="#4D5761" stroke-width="1.5" stroke-linecap="round" stroke-linejoin="round"/>
</svg>
