<svg width="44" height="44" viewBox="0 0 44 44" fill="none" xmlns="http://www.w3.org/2000/svg">
<g clip-path="url(#clip0_236_5087)">
<path d="M21.9999 7.06745C22.316 7.06789 22.6223 7.17724 22.8673 7.37709C23.1122 7.57694 23.2808 7.85509 23.3447 8.1647L24.4144 13.3622L29.6944 12.7737L29.9337 12.7682C30.2085 12.7858 30.4717 12.8856 30.6892 13.0545C30.9067 13.2235 31.0684 13.4538 31.1535 13.7158C31.2385 13.9777 31.2429 14.2592 31.1662 14.5237C31.0894 14.7882 30.935 15.0235 30.7229 15.1992L30.5249 15.3367L25.9049 17.9574L28.0967 22.7974L28.1737 23.0257C28.2418 23.2922 28.2284 23.5731 28.1353 23.8319C28.0422 24.0908 27.8735 24.3157 27.6512 24.4777C27.4285 24.6384 27.1628 24.7287 26.8883 24.737C26.6138 24.7454 26.3432 24.6713 26.1112 24.5245L25.9187 24.3815L21.9862 20.8064L18.0537 24.3815C17.8197 24.5943 17.5194 24.72 17.2035 24.7373C16.8876 24.7546 16.5754 24.6625 16.3196 24.4764C16.0637 24.2903 15.8799 24.0217 15.799 23.7159C15.7181 23.41 15.7452 23.0857 15.8757 22.7974L18.0647 17.9574L13.4447 15.3339C13.1718 15.176 12.9614 14.9294 12.8485 14.6351C12.7356 14.3408 12.727 14.0167 12.8242 13.7168C12.9213 13.417 13.1184 13.1595 13.3824 12.9874C13.6465 12.8152 13.9616 12.7388 14.2752 12.7709L19.5552 13.3594L20.6277 8.16195L20.6964 7.93095C20.7983 7.67511 20.9747 7.45576 21.2027 7.30131C21.4307 7.14686 21.6998 7.06443 21.9752 7.0647L21.9999 7.06745Z" fill="#6A0DAD"/>
<path fill-rule="evenodd" clip-rule="evenodd" d="M22 0C24.9277 0.00335669 27.8018 0.784962 30.3279 2.26474C32.8541 3.74451 34.9414 5.86926 36.3761 8.42128C37.8108 10.9733 38.5412 13.8609 38.4925 16.7881C38.4439 19.7154 37.6179 22.577 36.0993 25.08L40.7743 32.0925C41.0509 32.5082 41.2091 32.9913 41.232 33.4901C41.2549 33.9889 41.1415 34.4845 40.9041 34.9237C40.6667 35.363 40.3141 35.7293 39.8843 35.9834C39.4545 36.2375 38.9636 36.3697 38.4643 36.366L32.0293 36.311L29.6093 42.2785C29.4206 42.7414 29.1095 43.1443 28.7094 43.4439C28.3093 43.7436 27.8352 43.9288 27.3379 43.9797C26.8406 44.0305 26.3389 43.9451 25.8864 43.7327C25.4339 43.5202 25.0477 43.1886 24.7693 42.7735L21.9918 38.621L19.2143 42.801C18.9365 43.2164 18.5509 43.5482 18.0988 43.7609C17.6467 43.9736 17.1451 44.0591 16.6481 44.0082C16.151 43.9573 15.6772 43.772 15.2776 43.472C14.8779 43.1721 14.5675 42.769 14.3798 42.306L11.9598 36.3385L5.52476 36.3935C5.02509 36.3982 4.5336 36.2665 4.1032 36.0126C3.6728 35.7588 3.3198 35.3923 3.08219 34.9527C2.84457 34.5132 2.73135 34.0171 2.75471 33.5179C2.77807 33.0188 2.93713 32.5355 3.21476 32.12L7.88976 25.08C6.37761 22.5768 5.55733 19.717 5.51276 16.7929C5.46818 13.8688 6.20093 10.9853 7.63608 8.43723C9.07123 5.88915 11.1573 3.76788 13.681 2.29031C16.2047 0.812734 19.0756 0.0318526 22 0.0275V0ZM5.50001 33.55L12.87 33.4868C13.146 33.4834 13.4166 33.5632 13.6466 33.7157C13.8767 33.8682 14.0554 34.0865 14.1598 34.342L16.9373 41.1895L22.4373 32.912C22.2906 32.9193 22.143 32.9239 21.9945 32.9258C17.072 32.9258 12.6445 30.7615 9.61951 27.3433L5.49451 33.5583L5.50001 33.55ZM34.375 27.335C32.197 29.8136 29.3216 31.5772 26.125 32.395L23.6693 36.0525L27.0793 41.14L29.8568 34.2925C29.9605 34.0369 30.1387 33.8184 30.3682 33.6654C30.5977 33.5124 30.8679 33.4319 31.1438 33.4345L38.5138 33.5005L34.3888 27.313L34.375 27.335ZM22 2.6675C14.41 2.6675 8.25001 8.8275 8.25001 16.4175C8.25001 24.0075 14.41 30.1675 22 30.1675C29.59 30.1675 35.75 24.0075 35.75 16.4175C35.75 8.8275 29.59 2.6675 22 2.6675Z" fill="#6A0DAD"/>
</g>
<defs>
<clipPath id="clip0_236_5087">
<rect width="44" height="44" fill="white"/>
</clipPath>
</defs>
</svg>
