<svg width="34" height="34" viewBox="0 0 34 34" fill="none" xmlns="http://www.w3.org/2000/svg">
<path d="M14.3438 14.875C14.3438 14.7341 14.3997 14.599 14.4993 14.4993C14.599 14.3997 14.7341 14.3438 14.875 14.3438H19.125C19.2659 14.3438 19.401 14.3997 19.5007 14.4993C19.6003 14.599 19.6562 14.7341 19.6562 14.875C19.6562 15.0159 19.6003 15.151 19.5007 15.2507C19.401 15.3503 19.2659 15.4062 19.125 15.4062H14.875C14.7341 15.4062 14.599 15.3503 14.4993 15.2507C14.3997 15.151 14.3438 15.0159 14.3438 14.875ZM30.2812 9.5625V26.5625C30.2812 26.9852 30.1133 27.3906 29.8145 27.6895C29.5156 27.9883 29.1102 28.1562 28.6875 28.1562H5.3125C4.88981 28.1562 4.48443 27.9883 4.18555 27.6895C3.88666 27.3906 3.71875 26.9852 3.71875 26.5625V9.5625C3.71875 9.13981 3.88666 8.73443 4.18555 8.43555C4.48443 8.13666 4.88981 7.96875 5.3125 7.96875H11.1562V6.375C11.1562 5.67052 11.4361 4.99489 11.9342 4.49675C12.4324 3.9986 13.108 3.71875 13.8125 3.71875H20.1875C20.892 3.71875 21.5676 3.9986 22.0658 4.49675C22.5639 4.99489 22.8438 5.67052 22.8438 6.375V7.96875H28.6875C29.1102 7.96875 29.5156 8.13666 29.8145 8.43555C30.1133 8.73443 30.2812 9.13981 30.2812 9.5625ZM12.2188 7.96875H21.7812V6.375C21.7812 5.95231 21.6133 5.54693 21.3145 5.24805C21.0156 4.94916 20.6102 4.78125 20.1875 4.78125H13.8125C13.3898 4.78125 12.9844 4.94916 12.6855 5.24805C12.3867 5.54693 12.2188 5.95231 12.2188 6.375V7.96875ZM4.78125 9.5625V15.4062C8.51378 17.4981 12.7212 18.5957 17 18.5938C21.2788 18.5957 25.4862 17.4981 29.2188 15.4062V9.5625C29.2188 9.4216 29.1628 9.28648 29.0632 9.18685C28.9635 9.08722 28.8284 9.03125 28.6875 9.03125H5.3125C5.1716 9.03125 5.03648 9.08722 4.93685 9.18685C4.83722 9.28648 4.78125 9.4216 4.78125 9.5625ZM29.2188 26.5625V16.6148C25.456 18.613 21.2604 19.6573 17 19.6562C12.7396 19.6576 8.54391 18.6133 4.78125 16.6148V26.5625C4.78125 26.7034 4.83722 26.8385 4.93685 26.9382C5.03648 27.0378 5.1716 27.0938 5.3125 27.0938H28.6875C28.8284 27.0938 28.9635 27.0378 29.0632 26.9382C29.1628 26.8385 29.2188 26.7034 29.2188 26.5625Z" fill="#4F4A52"/>
</svg>
