<svg width="21" height="21" viewBox="0 0 21 21" fill="none" xmlns="http://www.w3.org/2000/svg">
<path d="M15.5009 1.49878C17.0747 2.46244 18.3571 3.83566 19.2109 5.47164C20.0647 7.10762 20.458 8.94488 20.3485 10.787C20.2391 12.6292 19.6312 14.407 18.5897 15.9304C17.5482 17.4538 16.1123 18.6655 14.4355 19.4361C12.7587 20.2067 10.904 20.5072 9.06972 20.3054C7.23539 20.1036 5.49038 19.4071 4.0212 18.2905C2.55202 17.1738 1.4139 15.6789 0.728485 13.9655C0.0430756 12.2521 -0.16386 10.3847 0.129801 8.56278L2.20247 8.89686C1.96935 10.3431 2.13362 11.8256 2.67772 13.1857C3.22183 14.5459 4.12531 15.7326 5.2916 16.619C6.45788 17.5055 7.84314 18.0584 9.29929 18.2186C10.7554 18.3788 12.2278 18.1402 13.5589 17.5285C14.89 16.9168 16.0298 15.9548 16.8566 14.7455C17.6834 13.5362 18.166 12.1249 18.2528 10.6625C18.3397 9.20018 18.0275 7.74171 17.3497 6.44301C16.6719 5.14431 15.6539 4.0542 14.4046 3.28921L15.5009 1.49878Z" fill="#FFB74D"/>
<ellipse opacity="0.7" cx="5.65734" cy="5.65734" rx="5.65734" ry="5.65734" transform="matrix(0 -1 -1 0 15.8406 15.8406)" fill="#FF9800"/>
</svg>
