<svg width="21" height="21" viewBox="0 0 21 21" fill="none" xmlns="http://www.w3.org/2000/svg">
<ellipse opacity="0.3" cx="5.65734" cy="5.65734" rx="5.65734" ry="5.65734" transform="matrix(0 -1 -1 0 15.8406 15.8406)" fill="#6141DB"/>
<path d="M17.3839 2.98264C18.808 4.40678 19.7779 6.22126 20.1708 8.19661C20.5637 10.172 20.362 12.2195 19.5913 14.0802C18.8206 15.9409 17.5154 17.5313 15.8407 18.6503C14.1661 19.7692 12.1973 20.3665 10.1832 20.3665L10.1832 18.267C11.7821 18.267 13.345 17.7929 14.6744 16.9047C16.0037 16.0164 17.0399 14.7539 17.6517 13.2768C18.2635 11.7997 18.4236 10.1743 18.1117 8.60618C17.7998 7.03808 17.0299 5.59769 15.8994 4.46715L17.3839 2.98264Z" fill="#20079B" fill-opacity="0.5"/>
</svg>
