<svg width="34" height="34" viewBox="0 0 34 34" fill="none" xmlns="http://www.w3.org/2000/svg">
<path fill-rule="evenodd" clip-rule="evenodd" d="M19.1972 6.44982C18.8784 6.13114 18.4461 5.95213 17.9953 5.95214L10.2 5.95129C9.74913 5.95129 9.31673 6.1304 8.99792 6.44921C8.67911 6.76802 8.5 7.20043 8.5 7.65129V26.3513C8.5 26.8022 8.67911 27.2346 8.99792 27.5534C9.31673 27.8722 9.74913 28.0513 10.2 28.0513H23.8C24.2509 28.0513 24.6833 27.8722 25.0021 27.5534C25.3209 27.2346 25.5 26.8022 25.5 26.3513V13.4555C25.5001 13.2321 25.4561 13.011 25.3706 12.8046C25.2852 12.5982 25.1599 12.4107 25.0019 12.2528L24.9169 12.1678C25.112 12.3917 24.9552 12.75 24.65 12.75H20.4C19.9491 12.75 19.5167 12.5709 19.1979 12.2521C18.8791 11.9333 18.7 11.5009 18.7 11.05V6.80002C18.7 6.49827 19.0511 6.34102 19.275 6.52717L19.1972 6.44982Z" fill="#F2C94C"/>
<path d="M24.8991 12.149L19.301 6.55092C19.2517 6.50162 19.189 6.46803 19.1207 6.45442C19.0524 6.4408 18.9815 6.44777 18.9172 6.47444C18.8528 6.50111 18.7978 6.54629 18.7592 6.60424C18.7205 6.66219 18.6999 6.73031 18.7 6.79997V11.05C18.7 11.5008 18.8791 11.9332 19.1979 12.2521C19.5167 12.5709 19.9491 12.75 20.4 12.75H24.65C24.7197 12.7501 24.7878 12.7295 24.8457 12.6908C24.9037 12.6521 24.9489 12.5972 24.9755 12.5328C25.0022 12.4684 25.0092 12.3976 24.9956 12.3293C24.982 12.261 24.9484 12.1982 24.8991 12.149Z" fill="#F2994A"/>
</svg>
