<svg width="34" height="34" viewBox="0 0 34 34" fill="none" xmlns="http://www.w3.org/2000/svg">
<path d="M17 18.4167V25.5M8.50002 31.1667H25.5M18.4691 4.06161L19.9637 7.0777C20.1677 7.49703 20.7117 7.89936 21.1707 7.97728L23.8822 8.43061C25.6162 8.72245 26.0242 9.99036 24.7747 11.2427L22.6667 13.3677C22.3097 13.7275 22.1142 14.4217 22.2247 14.9189L22.8282 17.5483C23.3042 19.6308 22.2077 20.4369 20.3802 19.3474L17.8401 17.8316C17.3811 17.5568 16.6246 17.5568 16.1571 17.8316L13.6156 19.3474C11.7966 20.4369 10.6916 19.6223 11.1676 17.5483L11.7711 14.9175C11.8816 14.4217 11.6861 13.7275 11.3291 13.3677L9.2211 11.2427C7.9801 9.99036 8.3796 8.72245 10.1136 8.43061L12.8251 7.97728C13.2756 7.89936 13.8196 7.49703 14.0236 7.0777L15.5196 4.0602C16.3356 2.42395 17.6616 2.42395 18.4691 4.0602M11.3334 29.75C11.3334 27.7469 11.3334 26.7453 11.9567 26.1234C12.5772 25.5 13.5788 25.5 15.5834 25.5H18.4167C20.4199 25.5 21.4214 25.5 22.0434 26.1234C22.6667 26.7453 22.6667 27.7469 22.6667 29.75V31.1667H11.3334V29.75Z" stroke="#4F4A52" stroke-width="1.5" stroke-linecap="round" stroke-linejoin="round"/>
</svg>
