<svg width="34" height="34" viewBox="0 0 34 34" fill="none" xmlns="http://www.w3.org/2000/svg">
<path d="M9.68362 27.2943C10.9232 30.0171 16.655 25.3478 17.9428 26.8508C18.3182 27.2879 17.6219 28.5331 17.6219 28.5331C17.6219 28.5331 23.052 26.3614 24.3369 27.4019C25.6218 28.4425 24.2909 31.1795 26.9521 29.6502M7.51187 27.3559C5.95567 26.7722 8.75146 20.5878 9.48529 18.9359C10.2191 17.2841 16.6083 1.69013 20.4057 4.16009C23.2277 5.99609 15.5125 17.8805 13.7261 20.6104C11.9397 23.3403 8.98025 27.9063 7.51187 27.3559Z" stroke="#4F4A52" stroke-width="0.708333" stroke-linecap="round" stroke-linejoin="round"/>
<path d="M18.7999 14.3239C20.6352 11.5707 23.7865 5.12837 20.7761 4.55249M9.48458 18.9359C10.3573 20.1514 12.002 20.5417 13.7261 20.6104" stroke="#4F4A52" stroke-width="0.708333" stroke-linecap="round" stroke-linejoin="round"/>
</svg>
