<svg width="44" height="44" viewBox="0 0 44 44" fill="none" xmlns="http://www.w3.org/2000/svg">
<g clip-path="url(#clip0_236_5123)">
<path d="M8.80001 11.0001H1.71601C0.902014 11.0001 0.0880138 11.7041 0.198014 12.8481L3.63001 34.8261C3.63001 34.8261 7.70001 18.6341 8.49201 14.7401C8.73401 13.5741 9.83401 13.2001 10.648 13.2001H22C22 13.2001 20.46 8.6241 20.306 8.1181C20.042 7.1501 19.558 6.6001 18.59 6.6001H11.308C10.516 6.6001 9.76801 7.1061 9.54801 8.0081C9.35001 8.8881 8.80001 11.0001 8.80001 11.0001ZM19.536 11.0001H10.736C10.736 11.0001 11.66 8.8001 12.65 8.8001H17.336C18.392 8.8001 19.536 11.0001 19.536 11.0001ZM5.87401 35.7501C5.19201 36.7841 4.20201 37.4001 3.10201 37.4001H37.708C38.896 37.4001 39.732 36.7181 39.974 35.5741C40.942 30.7561 43.67 17.0061 43.67 17.0061C43.824 15.9061 43.01 15.4001 42.306 15.4001H35.2V12.1661C35.2 11.8141 34.628 11.0001 33.748 11.0001H25.476C24.332 11.0001 23.562 12.2761 23.562 12.2761L22 15.4001H12.298C11.594 15.4001 10.912 15.8181 10.78 16.5001C10.78 16.5001 7.28201 31.2401 6.99601 32.6261C6.84201 33.4401 6.51201 34.8041 5.87401 35.7501ZM33.836 15.4001H24.2C24.2 15.4001 25.476 13.2001 26.686 13.2001H31.724C33.286 13.2001 33.836 15.4001 33.836 15.4001Z" fill="#6A0DAD"/>
</g>
<defs>
<clipPath id="clip0_236_5123">
<rect width="44" height="44" fill="white"/>
</clipPath>
</defs>
</svg>
