<svg width="34" height="34" viewBox="0 0 34 34" fill="none" xmlns="http://www.w3.org/2000/svg">
<path opacity="0.3" fill-rule="evenodd" clip-rule="evenodd" d="M17 2.83325V12.0416C17 12.6052 17.2238 13.1457 17.6224 13.5442C18.0209 13.9427 18.5614 14.1666 19.125 14.1666H28.3333V28.3333C28.3333 29.0847 28.0348 29.8054 27.5034 30.3367C26.9721 30.8681 26.2514 31.1666 25.5 31.1666H8.49996C7.74851 31.1666 7.02784 30.8681 6.49649 30.3367C5.96514 29.8054 5.66663 29.0847 5.66663 28.3333V5.66659C5.66663 4.91514 5.96514 4.19447 6.49649 3.66312C7.02784 3.13176 7.74851 2.83325 8.49996 2.83325H17Z" fill="#4F4A52"/>
<path fill-rule="evenodd" clip-rule="evenodd" d="M19.8334 2.89429C20.3703 3.00762 20.8619 3.27537 21.2501 3.66354L27.5032 9.9167C27.8914 10.3049 28.1591 10.7965 28.2725 11.3334H19.8334V2.89429ZM16.5099 16.5736L15.2434 18.7482L12.7826 19.2809C12.6857 19.3019 12.596 19.348 12.5225 19.4145C12.4489 19.4811 12.3941 19.5658 12.3636 19.6601C12.3331 19.7545 12.3278 19.8552 12.3484 19.9523C12.369 20.0493 12.4147 20.1392 12.4809 20.213L14.1582 22.0901L13.9032 24.5948C13.8932 24.6935 13.9093 24.7931 13.9499 24.8836C13.9905 24.9741 14.0541 25.0524 14.1344 25.1106C14.2147 25.1689 14.3089 25.205 14.4076 25.2154C14.5062 25.2258 14.6059 25.2101 14.6966 25.17L17.0001 24.1556L19.3036 25.17C19.3943 25.2101 19.4939 25.2258 19.5926 25.2154C19.6912 25.205 19.7854 25.1689 19.8657 25.1106C19.946 25.0524 20.0097 24.9741 20.0502 24.8836C20.0908 24.7931 20.1069 24.6935 20.0969 24.5948L19.8419 22.0901L21.5192 20.213C21.5854 20.1392 21.6311 20.0493 21.6517 19.9523C21.6723 19.8552 21.6671 19.7545 21.6365 19.6601C21.606 19.5658 21.5512 19.4811 21.4777 19.4145C21.4041 19.348 21.3144 19.3019 21.2175 19.2809L18.7567 18.7482L17.4902 16.5736C17.4404 16.4877 17.3689 16.4165 17.2829 16.3669C17.1969 16.3174 17.0993 16.2913 17.0001 16.2913C16.9008 16.2913 16.8032 16.3174 16.7172 16.3669C16.6312 16.4165 16.5597 16.4877 16.5099 16.5736Z" fill="#4F4A52"/>
</svg>
