<svg width="44" height="44" viewBox="0 0 44 44" fill="none" xmlns="http://www.w3.org/2000/svg">
<path d="M37.125 10.3125H29.5625V8.25C29.5625 7.33832 29.2003 6.46398 28.5557 5.81932C27.911 5.17466 27.0367 4.8125 26.125 4.8125H17.875C16.9633 4.8125 16.089 5.17466 15.4443 5.81932C14.7997 6.46398 14.4375 7.33832 14.4375 8.25V10.3125H6.875C6.32799 10.3125 5.80339 10.5298 5.41659 10.9166C5.0298 11.3034 4.8125 11.828 4.8125 12.375V34.375C4.8125 34.922 5.0298 35.4466 5.41659 35.8334C5.80339 36.2202 6.32799 36.4375 6.875 36.4375H37.125C37.672 36.4375 38.1966 36.2202 38.5834 35.8334C38.9702 35.4466 39.1875 34.922 39.1875 34.375V12.375C39.1875 11.828 38.9702 11.3034 38.5834 10.9166C38.1966 10.5298 37.672 10.3125 37.125 10.3125ZM14.4375 35.0625H6.875C6.69266 35.0625 6.5178 34.9901 6.38886 34.8611C6.25993 34.7322 6.1875 34.5573 6.1875 34.375V12.375C6.1875 12.1927 6.25993 12.0178 6.38886 11.8889C6.5178 11.7599 6.69266 11.6875 6.875 11.6875H14.4375V35.0625ZM28.1875 35.0625H15.8125V11.6875H28.1875V35.0625ZM28.1875 10.3125H15.8125V8.25C15.8125 7.70299 16.0298 7.17839 16.4166 6.79159C16.8034 6.4048 17.328 6.1875 17.875 6.1875H26.125C26.672 6.1875 27.1966 6.4048 27.5834 6.79159C27.9702 7.17839 28.1875 7.70299 28.1875 8.25V10.3125ZM37.8125 34.375C37.8125 34.5573 37.7401 34.7322 37.6111 34.8611C37.4822 34.9901 37.3073 35.0625 37.125 35.0625H29.5625V11.6875H37.125C37.3073 11.6875 37.4822 11.7599 37.6111 11.8889C37.7401 12.0178 37.8125 12.1927 37.8125 12.375V34.375Z" fill="#6A0DAD"/>
</svg>
