<svg width="34" height="34" viewBox="0 0 34 34" fill="none" xmlns="http://www.w3.org/2000/svg">
<path d="M10.611 16.7051C10.4888 17.2873 10.1701 17.8097 9.70829 18.1846C9.24651 18.5595 8.66981 18.7641 8.07499 18.7641C7.48018 18.7641 6.90348 18.5595 6.4417 18.1846C5.97992 17.8097 5.66119 17.2873 5.53902 16.7051L5.48377 16.4425C5.40295 16.0569 5.40424 15.6587 5.48758 15.2737C5.57091 14.8886 5.7344 14.5255 5.96742 14.2078L6.05667 14.0863C6.2892 13.7694 6.59306 13.5118 6.94367 13.3342C7.29427 13.1566 7.68177 13.0641 8.07478 13.0641C8.4678 13.0641 8.85529 13.1566 9.2059 13.3342C9.5565 13.5118 9.86037 13.7694 10.0929 14.0863L10.1821 14.2078C10.4152 14.5254 10.5788 14.8886 10.6622 15.2736C10.7456 15.6586 10.747 16.0569 10.6662 16.4425L10.611 16.7051ZM3.39999 23.8566C3.39999 24.2948 3.75529 24.6501 4.19347 24.6501H9.05674C9.37037 23.2585 10.2201 22.0468 11.4214 21.2777C11.2018 21.1214 10.9631 20.9936 10.7113 20.8973L10.5319 20.8289C8.94933 20.2251 7.19981 20.2251 5.61722 20.8289L5.43787 20.8969C4.8382 21.1256 4.32221 21.5312 3.95827 22.0598C3.59433 22.5885 3.39964 23.2148 3.39999 23.8566ZM29.8065 24.6501H24.9432C24.6296 23.2585 23.7799 22.0468 22.5785 21.2777C22.7982 21.1214 23.0369 20.9936 23.2887 20.8973L23.4681 20.8289C25.0507 20.2251 26.8002 20.2251 28.3828 20.8289L28.5621 20.8969C29.1618 21.1256 29.6778 21.5312 30.0417 22.0598C30.4057 22.5885 30.6004 23.2152 30.6 23.857C30.5999 24.0674 30.5162 24.2691 30.3674 24.4178C30.2186 24.5666 30.0169 24.6501 29.8065 24.6501ZM23.389 16.7056C23.5112 17.2877 23.8299 17.8101 24.2917 18.185C24.7535 18.5599 25.3302 18.7646 25.925 18.7646C26.5198 18.7646 27.0965 18.5599 27.5583 18.185C28.0201 17.8101 28.3388 17.2877 28.461 16.7056L28.5162 16.4425C28.597 16.0569 28.5957 15.6587 28.5124 15.2737C28.4291 14.8886 28.2656 14.5255 28.0326 14.2078L27.9433 14.0863C27.7108 13.7694 27.4069 13.5118 27.0563 13.3342C26.7057 13.1566 26.3182 13.0641 25.9252 13.0641C25.5322 13.0641 25.1447 13.1566 24.7941 13.3342C24.4435 13.5118 24.1396 13.7694 23.9071 14.0863L23.8178 14.2078C23.5848 14.5254 23.4212 14.8886 23.3378 15.2736C23.2544 15.6586 23.253 16.0569 23.3338 16.4425L23.389 16.7056Z" fill="#040313" fill-opacity="0.25"/>
<path d="M23.715 27.2H10.285C9.92429 27.2 9.57837 27.0568 9.32332 26.8017C9.06827 26.5467 8.92499 26.2007 8.92499 25.84C8.92499 23.5888 10.3173 21.573 12.4227 20.7753L12.7759 20.6414C15.4976 19.6106 18.5024 19.6106 21.2241 20.6414L21.5772 20.7753C22.6055 21.1645 23.491 21.8576 24.1158 22.7623C24.7406 23.667 25.0752 24.7405 25.075 25.84C25.075 26.2007 24.9317 26.5467 24.6767 26.8017C24.4216 27.0568 24.0757 27.2 23.715 27.2ZM14.9349 16.6082C15.5479 16.9264 16.2262 17.0986 16.9167 17.1114C17.6072 17.1242 18.2914 16.9773 18.9158 16.6821C19.5402 16.3868 20.0879 15.9513 20.5161 15.4094C20.9444 14.8676 21.2417 14.2341 21.3847 13.5584L21.4718 13.1478C21.6129 12.4818 21.6111 11.7935 21.4664 11.1283C21.3217 10.463 21.0374 9.83608 20.6325 9.28885L20.4922 9.0993C20.0883 8.55318 19.562 8.1094 18.9555 7.8036C18.349 7.4978 17.6792 7.3385 17 7.3385C16.3208 7.3385 15.651 7.4978 15.0445 7.8036C14.438 8.1094 13.9116 8.55318 13.5078 9.0993L13.3675 9.28885C12.9625 9.83608 12.6783 10.463 12.5336 11.1283C12.3889 11.7935 12.387 12.4818 12.5281 13.1478L12.6153 13.5584C12.7526 14.2066 13.0318 14.8162 13.4329 15.3436C13.834 15.8709 14.347 16.3028 14.9349 16.6082Z" fill="#040313" fill-opacity="0.25"/>
<path d="M10.611 16.7051C10.4888 17.2873 10.1701 17.8097 9.70829 18.1846C9.24651 18.5595 8.66981 18.7641 8.07499 18.7641C7.48018 18.7641 6.90348 18.5595 6.4417 18.1846C5.97992 17.8097 5.66119 17.2873 5.53902 16.7051L5.48377 16.4425C5.40295 16.0569 5.40424 15.6587 5.48758 15.2737C5.57091 14.8886 5.7344 14.5255 5.96742 14.2078L6.05667 14.0863C6.2892 13.7694 6.59306 13.5118 6.94367 13.3342C7.29427 13.1566 7.68177 13.0641 8.07478 13.0641C8.4678 13.0641 8.85529 13.1566 9.2059 13.3342C9.5565 13.5118 9.86037 13.7694 10.0929 14.0863L10.1821 14.2078C10.4152 14.5254 10.5788 14.8886 10.6622 15.2736C10.7456 15.6586 10.747 16.0569 10.6662 16.4425L10.611 16.7051ZM3.39999 23.8566C3.39999 24.2948 3.75529 24.6501 4.19347 24.6501H9.05674C9.37037 23.2585 10.2201 22.0468 11.4214 21.2777C11.2018 21.1214 10.9631 20.9936 10.7113 20.8973L10.5319 20.8289C8.94933 20.2251 7.19981 20.2251 5.61722 20.8289L5.43787 20.8969C4.8382 21.1256 4.32221 21.5312 3.95827 22.0598C3.59433 22.5885 3.39964 23.2148 3.39999 23.8566ZM29.8065 24.6501H24.9432C24.6296 23.2585 23.7799 22.0468 22.5785 21.2777C22.7982 21.1214 23.0369 20.9936 23.2887 20.8973L23.4681 20.8289C25.0507 20.2251 26.8002 20.2251 28.3828 20.8289L28.5621 20.8969C29.1618 21.1256 29.6778 21.5312 30.0417 22.0598C30.4057 22.5885 30.6004 23.2152 30.6 23.857C30.5999 24.0674 30.5162 24.2691 30.3674 24.4178C30.2186 24.5666 30.0169 24.6501 29.8065 24.6501ZM23.389 16.7056C23.5112 17.2877 23.8299 17.8101 24.2917 18.185C24.7535 18.5599 25.3302 18.7646 25.925 18.7646C26.5198 18.7646 27.0965 18.5599 27.5583 18.185C28.0201 17.8101 28.3388 17.2877 28.461 16.7056L28.5162 16.4425C28.597 16.0569 28.5957 15.6587 28.5124 15.2737C28.4291 14.8886 28.2656 14.5255 28.0326 14.2078L27.9433 14.0863C27.7108 13.7694 27.4069 13.5118 27.0563 13.3342C26.7057 13.1566 26.3182 13.0641 25.9252 13.0641C25.5322 13.0641 25.1447 13.1566 24.7941 13.3342C24.4435 13.5118 24.1396 13.7694 23.9071 14.0863L23.8178 14.2078C23.5848 14.5254 23.4212 14.8886 23.3378 15.2736C23.2544 15.6586 23.253 16.0569 23.3338 16.4425L23.389 16.7056Z" stroke="#040313" stroke-width="0.425" stroke-linecap="round" stroke-linejoin="round"/>
<path d="M23.715 27.2H10.285C9.92429 27.2 9.57837 27.0568 9.32332 26.8017C9.06827 26.5467 8.92499 26.2007 8.92499 25.84C8.92499 23.5888 10.3173 21.573 12.4227 20.7753L12.7759 20.6414C15.4976 19.6106 18.5024 19.6106 21.2241 20.6414L21.5772 20.7753C22.6055 21.1645 23.491 21.8576 24.1158 22.7623C24.7406 23.667 25.0752 24.7405 25.075 25.84C25.075 26.2007 24.9317 26.5467 24.6767 26.8017C24.4216 27.0568 24.0757 27.2 23.715 27.2ZM14.9349 16.6082C15.5479 16.9264 16.2262 17.0986 16.9167 17.1114C17.6072 17.1242 18.2914 16.9773 18.9158 16.6821C19.5402 16.3868 20.0879 15.9513 20.5161 15.4094C20.9444 14.8676 21.2417 14.2341 21.3847 13.5584L21.4718 13.1478C21.6129 12.4818 21.6111 11.7935 21.4664 11.1283C21.3217 10.463 21.0374 9.83608 20.6325 9.28885L20.4922 9.0993C20.0883 8.55318 19.562 8.1094 18.9555 7.8036C18.349 7.4978 17.6792 7.3385 17 7.3385C16.3208 7.3385 15.651 7.4978 15.0445 7.8036C14.438 8.1094 13.9116 8.55318 13.5078 9.0993L13.3675 9.28885C12.9625 9.83608 12.6783 10.463 12.5336 11.1283C12.3889 11.7935 12.387 12.4818 12.5281 13.1478L12.6153 13.5584C12.7526 14.2066 13.0318 14.8162 13.4329 15.3436C13.834 15.8709 14.347 16.3028 14.9349 16.6082Z" stroke="#040313" stroke-width="0.425" stroke-linecap="round" stroke-linejoin="round"/>
</svg>
