<svg width="44" height="44" viewBox="0 0 44 44" fill="none" xmlns="http://www.w3.org/2000/svg">
<path d="M8.25 31.1667H7.33333C6.8471 31.1667 6.38079 30.9735 6.03697 30.6297C5.69315 30.2859 5.5 29.8196 5.5 29.3334C5.5 27.8747 6.07946 26.4757 7.11091 25.4443C8.14236 24.4128 9.54131 23.8333 11 23.8333H12.8333M12.8333 18.2417C12.1602 18.104 11.5266 17.8167 10.9794 17.4011C10.4322 16.9855 9.98553 16.4522 9.67231 15.8406C9.35908 15.2291 9.18737 14.5549 9.16987 13.868C9.15237 13.1812 9.28953 12.4991 9.5712 11.8724C9.85287 11.2457 10.2718 10.6903 10.7971 10.2474C11.3224 9.80446 11.9406 9.4853 12.6058 9.31352C13.2711 9.14174 13.9665 9.12173 14.6406 9.25499C15.3146 9.38824 15.9501 9.67134 16.5 10.0833M35.75 31.1667H36.6667C37.1529 31.1667 37.6192 30.9735 37.963 30.6297C38.3068 30.2859 38.5 29.8196 38.5 29.3334C38.5 27.8747 37.9205 26.4757 36.8891 25.4443C35.8576 24.4128 34.4587 23.8333 33 23.8333H31.1667M31.1667 18.2417C31.8398 18.104 32.4734 17.8167 33.0206 17.4011C33.5678 16.9855 34.0145 16.4522 34.3277 15.8406C34.6409 15.2291 34.8126 14.5549 34.8301 13.868C34.8476 13.1812 34.7105 12.4991 34.4288 11.8724C34.1471 11.2457 33.7282 10.6903 33.2029 10.2474C32.6776 9.80446 32.0594 9.4853 31.3942 9.31352C30.7289 9.14174 30.0335 9.12173 29.3594 9.25499C28.6854 9.38824 28.0499 9.67134 27.5 10.0833M28.4167 34.8334H15.5833C15.0971 34.8334 14.6308 34.6402 14.287 34.2964C13.9432 33.9526 13.75 33.4862 13.75 33C13.75 31.5413 14.3295 30.1424 15.3609 29.1109C16.3924 28.0795 17.7913 27.5 19.25 27.5H24.75C26.2087 27.5 27.6076 28.0795 28.6391 29.1109C29.6705 30.1424 30.25 31.5413 30.25 33C30.25 33.4862 30.0568 33.9526 29.713 34.2964C29.3692 34.6402 28.9029 34.8334 28.4167 34.8334ZM26.5833 17.4167C26.5833 18.6323 26.1004 19.798 25.2409 20.6576C24.3814 21.5171 23.2156 22 22 22C20.7844 22 19.6186 21.5171 18.7591 20.6576C17.8996 19.798 17.4167 18.6323 17.4167 17.4167C17.4167 16.2011 17.8996 15.0353 18.7591 14.1758C19.6186 13.3162 20.7844 12.8333 22 12.8333C23.2156 12.8333 24.3814 13.3162 25.2409 14.1758C26.1004 15.0353 26.5833 16.2011 26.5833 17.4167Z" stroke="#6A0DAD" stroke-width="2" stroke-linecap="round"/>
</svg>
