<svg width="207" height="48" viewBox="0 0 207 48" fill="none" xmlns="http://www.w3.org/2000/svg">
<path d="M64.6378 7.49521C63.8786 4.54511 61.6419 2.22142 58.8014 1.43295C53.6528 0 33.0086 0 33.0086 0C33.0086 0 12.3645 0 7.21603 1.43295C4.37581 2.22142 2.13866 4.54511 1.37957 7.49521C0 12.8428 0 23.9998 0 23.9998C0 23.9998 0 35.1572 1.37957 40.5046C2.13866 43.4545 4.37581 45.7784 7.21603 46.5666C12.3645 48 33.0086 48 33.0086 48C33.0086 48 53.6528 48 58.8014 46.5666C61.6419 45.7784 63.8786 43.4545 64.6378 40.5046C66.0175 35.1572 66.0175 23.9998 66.0175 23.9998C66.0175 23.9998 66.0175 12.8428 64.6378 7.49521Z" fill="#9DA4AE"/>
<path d="M26.4062 34.2852L43.5575 23.9996L26.4062 13.7137V34.2852Z" fill="white"/>
<path d="M103.14 38.9601C103.501 37.98 103.683 36.3782 103.683 34.1552V24.7886C103.683 22.6312 103.501 21.0542 103.14 20.0568C102.778 19.0599 102.14 18.561 101.228 18.561C100.346 18.561 99.7243 19.0599 99.3629 20.0568C99.001 21.0542 98.82 22.6312 98.82 24.7886V34.1552C98.82 36.3782 98.9928 37.98 99.3395 38.9601C99.6851 39.9412 100.314 40.4311 101.228 40.4311C102.14 40.4311 102.778 39.9412 103.14 38.9601ZM95.8225 43.6678C94.5156 42.7535 93.5869 41.3309 93.0369 39.4014C92.4859 37.4733 92.2109 34.9069 92.2109 31.703V27.3387C92.2109 24.1024 92.525 21.5032 93.1549 19.5419C93.7841 17.5805 94.7672 16.1507 96.1056 15.2513C97.443 14.3526 99.1977 13.9028 101.37 13.9028C103.51 13.9028 105.225 14.3608 106.515 15.2758C107.805 16.191 108.75 17.6218 109.348 19.5664C109.945 21.5118 110.245 24.1024 110.245 27.3387V31.703C110.245 34.9069 109.954 37.4817 109.372 39.4264C108.789 41.3715 107.845 42.7938 106.539 43.6923C105.232 44.5912 103.462 45.041 101.228 45.041C98.9298 45.041 97.1278 44.5828 95.8225 43.6678Z" fill="#9DA4AE"/>
<path d="M196.922 19.1222C196.593 19.5472 196.371 20.242 196.262 21.206C196.151 22.1705 196.097 23.6332 196.097 25.5947V27.7524H200.864V25.5947C200.864 23.6663 200.801 22.2034 200.676 21.206C200.55 20.2091 200.322 19.5067 199.992 19.0977C199.661 18.6889 199.149 18.4845 198.457 18.4845C197.764 18.4845 197.253 18.6975 196.922 19.1222ZM196.097 31.7735V33.2938C196.097 35.2231 196.151 36.6695 196.262 37.6334C196.371 38.598 196.599 39.3009 196.946 39.7425C197.293 40.1833 197.827 40.4044 198.552 40.4044C199.527 40.4044 200.196 40.012 200.558 39.227C200.919 38.4426 201.116 37.1351 201.148 35.304L206.766 35.6475C206.797 35.9098 206.813 36.2693 206.813 36.7261C206.813 39.5053 206.082 41.5814 204.618 42.9543C203.155 44.3269 201.084 45.0137 198.41 45.0137C195.2 45.0137 192.949 43.9679 191.659 41.8751C190.368 39.7838 189.723 36.5471 189.723 32.166V26.9187C189.723 22.4074 190.392 19.1144 191.73 17.0377C193.067 14.962 195.357 13.924 198.599 13.924C200.833 13.924 202.548 14.3491 203.745 15.1989C204.94 16.0495 205.782 17.3735 206.27 19.1709C206.758 20.9691 207.002 23.454 207.002 26.6246V31.7735H196.097Z" fill="#9DA4AE"/>
<path d="M79.9591 31.2119L72.5469 3.40767H79.0147L81.6111 16.0103C82.2725 19.1167 82.7599 21.7646 83.0746 23.9542H83.2637C83.4838 22.3852 83.9718 19.7539 84.7271 16.0595L87.4181 3.40767H93.8859L86.3797 31.2119V44.5508H79.9591V31.2119Z" fill="#9DA4AE"/>
<path d="M131.282 14.4896V44.5491H126.183L125.616 40.8715H125.475C124.09 43.65 122.012 45.0391 119.243 45.0391C117.323 45.0391 115.907 44.386 114.994 43.0779C114.081 41.771 113.625 39.7271 113.625 36.9484V14.4896H120.14V36.5559C120.14 37.8971 120.282 38.8529 120.565 39.4246C120.848 39.9972 121.32 40.2828 121.981 40.2828C122.548 40.2828 123.091 40.1035 123.61 39.743C124.129 39.3836 124.515 38.9268 124.767 38.3707V14.4896H131.282Z" fill="#9DA4AE"/>
<path d="M164.704 14.4896V44.5491H159.605L159.038 40.8715H158.897C157.511 43.65 155.434 45.0391 152.665 45.0391C150.745 45.0391 149.329 44.386 148.416 43.0779C147.503 41.771 147.047 39.7271 147.047 36.9484V14.4896H153.562V36.5559C153.562 37.8971 153.703 38.8529 153.986 39.4246C154.27 39.9972 154.742 40.2828 155.403 40.2828C155.97 40.2828 156.513 40.1035 157.032 39.743C157.551 39.3836 157.936 38.9268 158.189 38.3707V14.4896H164.704Z" fill="#9DA4AE"/>
<path d="M148.989 8.85187H142.521V44.5508H136.147V8.85187H129.68V3.40857H148.989V8.85187Z" fill="#9DA4AE"/>
<path d="M180.294 31.5561C180.294 33.7466 180.207 35.4631 180.034 36.7048C179.861 37.948 179.57 38.8304 179.161 39.3529C178.751 39.8761 178.2 40.1374 177.509 40.1374C176.973 40.1374 176.477 40.0073 176.021 39.7449C175.564 39.4836 175.195 39.0916 174.912 38.5679V21.5033C175.132 20.6866 175.509 20.0161 176.045 19.4929C176.58 18.9706 177.161 18.7084 177.791 18.7084C178.452 18.7084 178.963 18.9783 179.326 19.5174C179.687 20.0567 179.939 20.964 180.081 22.2393C180.223 23.5139 180.294 25.3283 180.294 27.682V31.5561ZM186.266 19.2947C185.872 17.3992 185.234 16.0263 184.353 15.1756C183.472 14.3263 182.26 13.901 180.719 13.901C179.522 13.901 178.405 14.2527 177.367 14.9551C176.328 15.6582 175.525 16.5819 174.959 17.726H174.911L174.912 1.88679H168.633V44.5486H174.014L174.676 41.705H174.817C175.32 42.7181 176.076 43.5192 177.083 44.1076C178.09 44.6959 179.208 44.9902 180.435 44.9902C182.638 44.9902 184.259 43.9357 185.298 41.8274C186.336 39.7184 186.856 36.4255 186.856 31.9464V27.1898C186.856 23.8231 186.659 21.1913 186.266 19.2947Z" fill="#9DA4AE"/>
</svg>
